<svg width="27" height="29" viewBox="0 0 27 29" fill="none" xmlns="http://www.w3.org/2000/svg">
<g clip-path="url(#clip0_1413_2410)">
<path d="M5.82629 15.9494L4.48775 16.4511C4.48775 16.4511 4.60791 16.8431 4.48775 17.2584C4.3676 17.6737 2.70233 18.8056 2.70233 18.8056L1.03496 20.7702C1.03496 20.7702 1.09398 24.4612 1.03496 24.5202C0.975936 24.5793 2.97636 26.782 2.97636 26.782L5.14121 27.6758H7.87942L9.12942 26.723L10.3773 25.0556L10.9739 23.6265C10.9739 23.6265 11.0919 22.1383 10.9739 21.8115C10.8558 21.4848 10.0801 19.8174 10.0801 19.8174C10.0801 19.8174 8.95025 18.2702 8.71205 18.1501C8.47386 18.0299 6.92663 16.9591 6.92663 16.9591L5.82629 15.9473V15.9494Z" fill="#D09533"/>
<path d="M5.74202 13.1214C5.56074 13.1214 5.38156 13.1151 5.2066 13.1004C3.04808 12.9296 1.23315 11.5384 0.474293 9.46628C-0.322506 7.29089 0.19183 4.93843 1.81916 3.32797L4.5953 0.575011C5.22768 -0.0510453 6.25635 -0.0510453 6.88663 0.575011L9.66488 3.32797C11.2922 4.94054 11.8065 7.293 11.0076 9.46838C10.2446 11.5426 8.42753 12.9338 6.26479 13.1004C6.09194 13.113 5.91698 13.1214 5.73991 13.1214H5.74202ZM5.74202 1.18631C5.6029 1.18631 5.46377 1.23901 5.35838 1.34441L2.58223 4.09526C1.26055 5.40429 0.841074 7.3204 1.49243 9.09106C2.11216 10.7858 3.53291 11.8799 5.29092 12.0169C5.58603 12.0401 5.88958 12.0401 6.18469 12.0169C7.94481 11.882 9.36977 10.7879 9.99161 9.09106C10.643 7.31829 10.2256 5.40429 8.90392 4.09315L6.12566 1.34019C6.02027 1.2369 5.88114 1.1842 5.74202 1.1842V1.18631Z" fill="#243E26" stroke="#243E26" stroke-width="0.210793" stroke-linecap="round" stroke-linejoin="round"/>
<path d="M20.879 13.1214C20.6977 13.1214 20.5206 13.1151 20.3436 13.1004C18.185 12.9296 16.3722 11.5384 15.6112 9.46628C14.8144 7.29089 15.3309 4.93843 16.9561 3.32586L19.7323 0.575011C20.3646 -0.0510453 21.3912 -0.0510453 22.0236 0.575011L24.8018 3.32797C26.4292 4.94054 26.9435 7.293 26.1446 9.46838C25.3815 11.5426 23.5645 12.9338 21.4017 13.1004C21.2289 13.113 21.0539 13.1214 20.8769 13.1214H20.879ZM20.879 1.18631C20.7398 1.18631 20.6007 1.23901 20.4953 1.34441L17.7192 4.09526C16.3975 5.40429 15.9801 7.3204 16.6273 9.09317C17.2491 10.7879 18.6677 11.882 20.4258 12.019C20.7209 12.0422 21.0244 12.0422 21.3195 12.019C23.0818 11.8841 24.5046 10.7901 25.1286 9.09317C25.7799 7.32251 25.3625 5.40639 24.0409 4.09526L21.2626 1.3423C21.1572 1.23901 21.0202 1.18631 20.8811 1.18631H20.879Z" fill="#243E26" stroke="#243E26" stroke-width="0.210793" stroke-linecap="round" stroke-linejoin="round"/>
<path d="M5.74191 28.3185C5.56063 28.3185 5.38146 28.3122 5.2065 28.2975C3.04797 28.1267 1.23304 26.7355 0.474187 24.6634C-0.322612 22.488 0.191724 20.1355 1.81905 18.5251L4.5952 15.7742C5.22758 15.1482 6.25625 15.1482 6.88652 15.7742L9.66478 18.5272C11.2921 20.1398 11.8064 22.4922 11.0075 24.6676C10.2445 26.7418 8.42742 28.1352 6.26468 28.2996C6.09183 28.3122 5.91687 28.3185 5.73981 28.3185H5.74191ZM5.74191 16.3855C5.60279 16.3855 5.46367 16.4382 5.35827 16.5436L2.58212 19.2945C1.26045 20.6035 0.840968 22.5196 1.49232 24.2924C2.11205 25.9872 3.5328 27.0812 5.29082 27.2182C5.58593 27.2414 5.88947 27.2414 6.18458 27.2182C7.94681 27.0833 9.36967 25.9893 9.99362 24.2924C10.645 22.5196 10.2276 20.6056 8.90381 19.2966L6.12556 16.5436C6.02016 16.4403 5.88104 16.3876 5.74191 16.3876V16.3855Z" fill="#243E26" stroke="#243E26" stroke-width="0.210793" stroke-linecap="round" stroke-linejoin="round"/>
<path d="M20.879 28.3187C20.6977 28.3187 20.5206 28.3124 20.3436 28.2976C18.185 28.1269 16.3722 26.7356 15.6112 24.6635C14.8144 22.4882 15.3309 20.1357 16.9561 18.5231L19.7323 15.7723C20.3646 15.1462 21.3912 15.1462 22.0236 15.7723L24.8018 18.5252C26.4292 20.1378 26.9435 22.4903 26.1446 24.6656C25.3815 26.7399 23.5645 28.1332 21.4017 28.2976C21.2289 28.3103 21.0539 28.3166 20.8769 28.3166L20.879 28.3187ZM20.879 16.3857C20.7398 16.3857 20.6007 16.4384 20.4953 16.5438L17.7192 19.2946C16.3975 20.6037 15.9801 22.5198 16.6273 24.2925C17.2491 25.9873 18.6677 27.0813 20.4258 27.2184C20.7209 27.2415 21.0244 27.2415 21.3195 27.2184C23.0818 27.0834 24.5046 25.9894 25.1286 24.2925C25.7799 22.5198 25.3625 20.6058 24.0388 19.2967L21.2605 16.5438C21.1551 16.4405 21.0181 16.3878 20.879 16.3878V16.3857Z" fill="#243E26" stroke="#243E26" stroke-width="0.210793" stroke-linecap="round" stroke-linejoin="round"/>
</g>
<defs>
<clipPath id="clip0_1413_2410">
<rect width="26.6211" height="28.4255" fill="white"/>
</clipPath>
</defs>
</svg>
