<svg width="32" height="28" viewBox="0 0 32 28" fill="none" xmlns="http://www.w3.org/2000/svg">
<path d="M27.393 19.6987L25.8685 18.5652H24.1219H17.5821H10.4268L4.48382 18.3223H2.78581L1.41168 19.1713L0.442383 20.1822V21.7599V23.8604L0.604318 25.5585L0.84722 26.5694L2.05942 27.2565H3.83839L9.86006 27.46H13.4596H18.2298H22.07L24.1219 27.2981H25.4243L26.3127 26.9789L27.7585 26.0049V24.3462L27.393 19.6987Z" fill="#D09533"/>
<path d="M28.8455 18.8918H6.66966C4.9971 18.8918 3.63916 17.5316 3.63916 15.8613V12.1438C3.63916 10.4712 4.99941 9.11328 6.66966 9.11328H28.8455C30.5158 9.11328 31.876 10.4735 31.876 12.1438V15.8613C31.876 17.5339 30.5158 18.8918 28.8455 18.8918ZM6.66966 9.95997C5.4644 9.95997 4.48585 10.9408 4.48585 12.1438V15.8613C4.48585 17.0666 5.46671 18.0452 6.66966 18.0452H28.8455C30.0508 18.0452 31.0293 17.0643 31.0293 15.8613V12.1438C31.0293 10.9385 30.0485 9.95997 28.8455 9.95997H6.66966Z" fill="#243E26"/>
<path d="M27.3351 14.4229H8.17823C7.94458 14.4229 7.75488 14.2332 7.75488 13.9995C7.75488 13.7659 7.94458 13.5762 8.17823 13.5762H27.3351C27.5688 13.5762 27.7585 13.7659 27.7585 13.9995C27.7585 14.2332 27.5688 14.4229 27.3351 14.4229Z" fill="#D09533"/>
<path d="M25.2063 27.8235H3.0305C1.35794 27.8235 0 26.4632 0 24.793V21.0754C0 19.4029 1.36025 18.0449 3.0305 18.0449H25.2063C26.8766 18.0449 28.2368 19.4052 28.2368 21.0754V24.793C28.2368 26.4655 26.8766 27.8235 25.2063 27.8235ZM3.0305 18.8916C1.82524 18.8916 0.846689 19.8725 0.846689 21.0754V24.793C0.846689 25.9982 1.82755 26.9768 3.0305 26.9768H25.2063C26.4116 26.9768 27.3902 25.9959 27.3902 24.793V21.0754C27.3902 19.8702 26.4093 18.8916 25.2063 18.8916H3.0305Z" fill="#243E26"/>
<path d="M25.6487 9.77856H3.47288C1.80032 9.77856 0.442383 8.41831 0.442383 6.74806V3.0305C0.442383 1.36025 1.80264 0 3.47288 0H25.6487C27.319 0 28.6792 1.36025 28.6792 3.0305V6.74806C28.6792 8.42062 27.319 9.77856 25.6487 9.77856ZM3.47288 0.846689C2.26762 0.846689 1.28907 1.82755 1.28907 3.0305V6.74806C1.28907 7.95332 2.26994 8.93187 3.47288 8.93187H25.6487C26.854 8.93187 27.8325 7.95101 27.8325 6.74806V3.0305C27.8325 1.82524 26.8517 0.846689 25.6487 0.846689H3.47288Z" fill="#243E26"/>
<path d="M24.1398 5.31153H4.98292C4.74927 5.31153 4.55957 5.12184 4.55957 4.88819C4.55957 4.65454 4.74927 4.46484 4.98292 4.46484H24.1398C24.3735 4.46484 24.5632 4.65454 24.5632 4.88819C24.5632 5.12184 24.3735 5.31153 24.1398 5.31153Z" fill="#D09533"/>
<path d="M23.6979 23.3584H4.54102C4.30737 23.3584 4.11768 23.1687 4.11768 22.9351C4.11768 22.7014 4.30737 22.5117 4.54102 22.5117H23.6979C23.9316 22.5117 24.1213 22.7014 24.1213 22.9351C24.1213 23.1687 23.9316 23.3584 23.6979 23.3584Z" fill="white"/>
</svg>
