<svg width="27" height="29" viewBox="0 0 27 29" fill="none" xmlns="http://www.w3.org/2000/svg">
<path d="M23.352 22.9905H21.9193L18.5533 22.8887H16.1258L14.4937 22.9905V24.7657V26.0922V27.0502L15.0659 27.5205L16.31 27.6831H18.4926H20.7771L22.3485 27.5595L23.2762 27.4988L23.6728 26.8464L23.7855 25.6153L23.6533 23.0317L23.352 22.9905Z" fill="#D09533"/>
<path d="M0.398712 13.1585V12.0553V10.9954L0.754173 10.4254L1.5648 10.2715H2.55098L4.01618 10.4644L5.37516 10.6486L6.59977 10.4644L7.95226 10.5641L8.9081 10.6486L9.29174 11.2815L9.45429 12.4238V13.9323V16.3815V17.9724V19.7584V21.4598V23.5623L9.28523 24.5311L9.45429 25.0708L8.09531 24.9082H5.86501L3.056 24.8844H1.21367H0.398712V13.1585Z" fill="#D09533"/>
<path d="M8.34249 28.0165H1.31997C0.591712 28.0165 0 27.4248 0 26.6966V11.2145C0 10.4862 0.591712 9.89453 1.31997 9.89453H8.34249C9.07076 9.89453 9.66247 10.4862 9.66247 11.2145V26.6987C9.66247 27.427 9.07076 28.0187 8.34249 28.0187V28.0165ZM1.31997 10.6488C1.00786 10.6488 0.754271 10.9024 0.754271 11.2145V26.6987C0.754271 27.0108 1.00786 27.2644 1.31997 27.2644H8.34249C8.65461 27.2644 8.9082 27.0108 8.9082 26.6987V11.2145C8.9082 10.9024 8.65461 10.6488 8.34249 10.6488H1.31997Z" fill="#243E26"/>
<path d="M7.72051 10.6494H1.94211C1.73403 10.6494 1.56497 10.4803 1.56497 10.2722V7.84254C1.56497 7.30501 2.0028 6.86719 2.54032 6.86719H7.12013C7.65766 6.86719 8.09548 7.30501 8.09548 7.84254V10.2722C8.09548 10.4803 7.92642 10.6494 7.71835 10.6494H7.72051ZM2.31924 9.89511H7.34121V7.84254C7.34121 7.72116 7.24151 7.62146 7.12013 7.62146H2.54249C2.42111 7.62146 2.32141 7.72116 2.32141 7.84254V9.89511H2.31924Z" fill="#243E26"/>
<path d="M6.73429 7.61857H2.92826C2.81772 7.61857 2.71368 7.57088 2.64215 7.48635C2.57063 7.40182 2.53812 7.29128 2.55545 7.18291L3.50696 1.13141C3.611 0.476838 4.16803 0 4.83127 0C5.49451 0 6.05154 0.476838 6.15558 1.13141L7.10709 7.18291C7.12443 7.29128 7.09192 7.40399 7.02039 7.48635C6.94886 7.56872 6.84483 7.61857 6.73429 7.61857ZM3.37041 6.8643H6.2943L5.40998 1.24845C5.36446 0.960178 5.12171 0.754271 4.83127 0.754271C4.54083 0.754271 4.29808 0.962345 4.25256 1.24845L3.37041 6.8643Z" fill="#243E26"/>
<path d="M6.47849 22.2139H0.377135C0.169061 22.2139 0 22.0448 0 21.8367V13.2385C0 13.0304 0.169061 12.8613 0.377135 12.8613H6.47849C6.68657 12.8613 6.85563 13.0304 6.85563 13.2385V21.8367C6.85563 22.0448 6.68657 22.2139 6.47849 22.2139ZM0.754271 21.4596H6.10136V13.6156H0.754271V21.4596Z" fill="#243E26"/>
<path d="M4.5994 4.41052H3.43332C3.22524 4.41052 3.05618 4.24146 3.05618 4.03339C3.05618 3.82531 3.22524 3.65625 3.43332 3.65625H4.5994C4.80748 3.65625 4.97654 3.82531 4.97654 4.03339C4.97654 4.24146 4.80748 4.41052 4.5994 4.41052Z" fill="#243E26"/>
<path d="M9.28533 25.2855H0.377135C0.169061 25.2855 0 25.1165 0 24.9084C0 24.7003 0.169061 24.5312 0.377135 24.5312H9.28533C9.49341 24.5312 9.66247 24.7003 9.66247 24.9084C9.66247 25.1165 9.49341 25.2855 9.28533 25.2855Z" fill="#243E26"/>
<path d="M22.7409 28.0155H15.4128C14.7018 28.0155 14.1231 27.4368 14.1231 26.7259V22.883C14.1231 22.6749 14.2922 22.5059 14.5003 22.5059H23.6534C23.8615 22.5059 24.0305 22.6749 24.0305 22.883V26.7259C24.0305 27.4368 23.4518 28.0155 22.7409 28.0155ZM14.8752 23.2601V26.7259C14.8752 27.0206 15.1158 27.2612 15.4106 27.2612H22.7387C23.0335 27.2612 23.2741 27.0206 23.2741 26.7259V23.2601H14.8752Z" fill="#243E26"/>
<path d="M23.673 23.2602H14.4982C14.3096 23.2602 14.1492 23.1215 14.1254 22.9329L11.4637 3.36736C11.4031 2.9187 11.5374 2.46571 11.8365 2.12325C12.1335 1.78296 12.5648 1.58789 13.0178 1.58789H25.1555C25.6085 1.58789 26.0376 1.78296 26.3367 2.12325C26.6337 2.46571 26.7702 2.9187 26.7095 3.36736L24.0479 22.935C24.0219 23.1215 23.8637 23.2623 23.6751 23.2623L23.673 23.2602ZM14.8276 22.5059H23.3435L25.9618 3.26549C25.9943 3.03358 25.9228 2.79732 25.7689 2.61959C25.615 2.44186 25.3917 2.34216 25.1555 2.34216H13.0178C12.7837 2.34216 12.5583 2.44403 12.4044 2.61959C12.2505 2.79732 12.179 3.03141 12.2115 3.26549L14.8298 22.5059H14.8276Z" fill="#243E26"/>
<path d="M16.9018 25.639H14.4981C14.2901 25.639 14.121 25.47 14.121 25.2619C14.121 25.0538 14.2901 24.8848 14.4981 24.8848H16.9018C17.1099 24.8848 17.279 25.0538 17.279 25.2619C17.279 25.47 17.1099 25.639 16.9018 25.639Z" fill="#243E26"/>
<path d="M23.6534 25.639H21.2497C21.0416 25.639 20.8726 25.47 20.8726 25.2619C20.8726 25.0538 21.0416 24.8848 21.2497 24.8848H23.6534C23.8615 24.8848 24.0305 25.0538 24.0305 25.2619C24.0305 25.47 23.8615 25.639 23.6534 25.639Z" fill="#243E26"/>
<path d="M23.4519 5.1781H12.0381C11.83 5.1781 11.661 5.00904 11.661 4.80096C11.661 4.59289 11.83 4.42383 12.0381 4.42383H23.4519C23.66 4.42383 23.829 4.59289 23.829 4.80096C23.829 5.00904 23.66 5.1781 23.4519 5.1781Z" fill="#243E26"/>
<path d="M19.0846 16.6584C16.7329 16.6584 14.8191 14.7446 14.8191 12.3907C14.8191 10.0369 16.7329 8.12305 19.0846 8.12305C21.4363 8.12305 23.3523 10.0369 23.3523 12.3907C23.3523 14.7446 21.4384 16.6584 19.0846 16.6584ZM19.0846 8.87949C17.1469 8.87949 15.5733 10.4552 15.5733 12.3929C15.5733 14.3306 17.1491 15.9063 19.0846 15.9063C21.0201 15.9063 22.598 14.3306 22.598 12.3929C22.598 10.4552 21.0223 8.87949 19.0846 8.87949Z" fill="#243E26"/>
<path d="M24.0455 20.5121H14.1229C13.9148 20.5121 13.7458 20.343 13.7458 20.1349C13.7458 19.9269 13.9148 19.7578 14.1229 19.7578H24.0455C24.2535 19.7578 24.4226 19.9269 24.4226 20.1349C24.4226 20.343 24.2535 20.5121 24.0455 20.5121Z" fill="#243E26"/>
</svg>
