<svg width="32" height="32" viewBox="0 0 32 32" fill="none" xmlns="http://www.w3.org/2000/svg">
<mask id="mask0_2631_161" style="mask-type:luminance" maskUnits="userSpaceOnUse" x="0" y="0" width="32" height="32">
<path d="M0 0H31.8149V31.8149H0V0Z" fill="white"/>
</mask>
<g mask="url(#mask0_2631_161)">
<mask id="mask1_2631_161" style="mask-type:luminance" maskUnits="userSpaceOnUse" x="0" y="-1" width="32" height="33">
<path d="M0 -0.000976562H31.8149V31.814H0V-0.000976562Z" fill="white"/>
</mask>
<g mask="url(#mask1_2631_161)">
<path d="M21.7068 4.30791C23.3065 4.31269 24.6719 4.88064 25.8029 6.01177C26.9341 7.1429 27.5021 8.50828 27.5069 10.1079V21.7067C27.5021 23.3064 26.9341 24.6718 25.8029 25.8028C24.6718 26.934 23.3065 27.502 21.7068 27.5068H10.108C8.50838 27.502 7.14301 26.934 6.01188 25.8028C4.88075 24.6718 4.3128 23.3064 4.30802 21.7067V10.1079C4.3128 8.50828 4.88075 7.1429 6.01188 6.01177C7.14301 4.88064 8.50838 4.31269 10.108 4.30791H21.7068ZM21.7068 1.98828H10.108C5.64214 1.98828 1.98839 5.64203 1.98839 10.1079V21.7067C1.98839 26.1727 5.64214 29.8264 10.108 29.8264H21.7068C26.1728 29.8264 29.8265 26.1727 29.8265 21.7067V10.1079C29.8265 5.64203 26.1728 1.98828 21.7068 1.98828Z" fill="#FFC219"/>
<path d="M23.4469 10.1087C22.9665 10.1087 22.5563 9.9388 22.2167 9.59907C21.8769 9.25934 21.7071 8.84924 21.7071 8.36879C21.7071 7.88833 21.8769 7.47824 22.2167 7.1385C22.5563 6.79877 22.9665 6.62891 23.4469 6.62891C23.9274 6.62891 24.3374 6.79877 24.6772 7.1385C25.0169 7.47824 25.1868 7.88833 25.1868 8.36879C25.1878 8.84967 25.0184 9.26012 24.6783 9.60016C24.3382 9.94019 23.9278 10.1097 23.4469 10.1087ZM15.9077 11.2682C17.1889 11.2682 18.2826 11.7212 19.1886 12.6272C20.0946 13.5332 20.5476 14.6268 20.5476 15.9081C20.5476 17.1893 20.0946 18.283 19.1886 19.189C18.2826 20.095 17.1889 20.5479 15.9077 20.5479C14.6264 20.5479 13.5328 20.095 12.6268 19.189C11.7208 18.283 11.2678 17.1893 11.2678 15.9081C11.2692 14.6274 11.7226 13.5342 12.6282 12.6286C13.5338 11.723 14.627 11.2695 15.9077 11.2682ZM15.9077 8.94853C13.9858 8.94853 12.3455 9.62801 10.9865 10.9869C9.62762 12.3459 8.94815 13.9862 8.94815 15.9081C8.94815 17.8299 9.62762 19.4703 10.9865 20.8292C12.3455 22.1881 13.9858 22.8675 15.9077 22.8675C17.8295 22.8675 19.4699 22.1881 20.8288 20.8292C22.1877 19.4703 22.8672 17.8299 22.8672 15.9081C22.8672 13.9862 22.1877 12.3459 20.8288 10.9869C19.4699 9.62801 17.8295 8.94853 15.9077 8.94853Z" fill="#FFC219"/>
</g>
</g>
</svg>
