<svg width="28" height="31" viewBox="0 0 28 31" fill="none" xmlns="http://www.w3.org/2000/svg">
<g clip-path="url(#clip0_1413_2444)">
<path d="M7.8104 10.7696L8.90284 9.7348L11.0578 8.5179L12.9269 8.0293L15.0404 8.35426L16.9464 8.75759L18.3338 9.58269L19.4885 10.5L19.931 11.7261V12.6756L20.8137 13.3717L21.2631 14.123L20.8898 15.6695L20.037 16.5937L19.4885 17.133L18.3292 19.8803L17.3197 21.1202L16.1259 22.0352L14.879 22.4016L12.3231 22.4731L10.3041 21.3L9.7072 20.4587L8.53178 18.8569L8.30822 17.7576L7.6145 16.7343L6.83549 16.0774L6.46213 14.9066L6.56815 13.692L7.30566 12.7425L7.8104 10.7696Z" fill="#D09533"/>
<path d="M4.84193 23.5984V12.4688C4.84193 8.47468 7.72516 3.14844 13.7198 3.14844C19.7144 3.14844 22.5976 8.47468 22.5976 12.4688V18.1822" stroke="#243E26" stroke-width="1.15237" stroke-linecap="round" stroke-linejoin="round"/>
<path d="M4.84207 25.785V23.123" stroke="#243E26" stroke-width="1.15237" stroke-linecap="round" stroke-linejoin="round"/>
<path d="M7.50435 11.1361C9.00012 9.22546 11.2933 8.0293 13.7179 8.0293C16.1425 8.0293 18.4357 9.22546 19.9315 11.1361" stroke="#243E26" stroke-width="1.15237" stroke-linecap="round" stroke-linejoin="round"/>
<path d="M19.4892 16.9067C19.4892 18.1005 17.6592 22.6777 13.7181 22.6777C9.77702 22.6777 7.94706 18.1005 7.94706 16.9067C7.94706 16.9067 6.17241 16.2129 6.17241 14.2447C6.17241 13.1914 6.8961 12.9125 7.50455 12.9125V10.3635C7.50455 9.54071 7.76959 8.74558 8.26741 8.08873C9.54193 6.40166 11.0469 5.36914 13.7181 5.36914C15.8869 5.36914 17.8943 6.40166 19.1688 8.08873C19.6666 8.74558 19.9317 9.54071 19.9317 10.3635V12.9125C20.5378 12.9125 21.2638 13.1891 21.2638 14.2447C21.2638 16.2152 19.4892 16.9067 19.4892 16.9067Z" stroke="#243E26" stroke-width="1.15237" stroke-linecap="round" stroke-linejoin="round"/>
<path d="M11.9427 19.1083C12.966 20.0048 14.4802 19.9979 15.4943 19.0898" stroke="#243E26" stroke-width="0.691421" stroke-linecap="round" stroke-linejoin="round"/>
<path d="M16.8269 21.5605C16.8269 23.5841 18.1014 27.1173 22.5956 27.1173" stroke="#243E26" stroke-width="1.15237" stroke-linecap="round" stroke-linejoin="round"/>
<path d="M10.6108 21.5605C10.6108 23.5841 9.33631 27.1173 4.84207 27.1173" stroke="#243E26" stroke-width="1.15237" stroke-linecap="round" stroke-linejoin="round"/>
<path d="M15.4949 14.4861C15.8337 14.8963 16.3223 15.1291 16.834 15.1222C17.3456 15.1153 17.8296 14.8687 18.1569 14.4492" stroke="#243E26" stroke-width="0.691421" stroke-linecap="round" stroke-linejoin="round"/>
<path d="M11.9429 14.4861C11.6041 14.8963 11.1155 15.1291 10.6039 15.1222C10.0922 15.1153 9.60825 14.8687 9.28098 14.4492" stroke="#243E26" stroke-width="0.691421" stroke-linecap="round" stroke-linejoin="round"/>
<path d="M23.0379 20.4582C21.7196 20.4582 21.2632 19.6631 21.2632 18.6836C21.2632 19.6631 20.8046 20.4582 19.4886 20.4582C20.8069 20.4582 21.2632 21.2534 21.2632 22.2329C21.2632 21.2534 21.7219 20.4582 23.0379 20.4582Z" fill="#D09533" stroke="#D09533" stroke-width="0.230474" stroke-linejoin="round"/>
<path d="M24.8151 24.009C23.4967 24.009 23.0404 23.2139 23.0404 22.2344C23.0404 23.2139 22.5818 24.009 21.2658 24.009C22.5841 24.009 23.0404 24.8042 23.0404 25.7837C23.0404 24.8042 23.4991 24.009 24.8151 24.009Z" fill="#D09533" stroke="#D09533" stroke-width="0.230474" stroke-linejoin="round"/>
<path d="M15.0546 5.49609C15.6032 5.71043 15.9627 6.23822 15.9581 6.82593C15.9535 7.41363 15.5893 7.93911 15.0385 8.14424" stroke="#243E26" stroke-width="1.15237" stroke-linecap="round" stroke-linejoin="round"/>
<path d="M0.47708 3.88579C0.212036 3.88579 0 3.67145 0 3.40871V0.47708C0 0.21434 0.21434 0 0.47708 0H4.22228C4.48732 0 4.69936 0.21434 4.69936 0.47708C4.69936 0.73982 4.48502 0.954161 4.22228 0.954161H0.956466V3.4064C0.956466 3.67145 0.742125 3.88348 0.479385 3.88348L0.47708 3.88579Z" fill="#243E26"/>
<path d="M27.1383 3.88543C26.8733 3.88543 26.6612 3.67109 26.6612 3.40835V0.956114H23.3931C23.1281 0.956114 22.916 0.741774 22.916 0.479034C22.916 0.216294 23.1304 0.00195312 23.3931 0.00195312H27.1383C27.4034 0.00195312 27.6154 0.216294 27.6154 0.479034V3.40835C27.6154 3.6734 27.401 3.88543 27.1383 3.88543Z" fill="#243E26"/>
<path d="M4.38118 30.8881H0.495396C0.221133 30.8881 -0.00012207 30.6668 -0.00012207 30.3925V27.3549C-0.00012207 27.0806 0.221133 26.8594 0.495396 26.8594C0.76966 26.8594 0.990915 27.0806 0.990915 27.3549V29.897H4.38118C4.65545 29.897 4.8767 30.1183 4.8767 30.3925C4.8767 30.6668 4.65545 30.8881 4.38118 30.8881Z" fill="#243E26"/>
<path d="M27.1383 30.887H23.3931C23.1281 30.887 22.916 30.6727 22.916 30.41C22.916 30.1472 23.1304 29.9329 23.3931 29.9329H26.6612V27.4829C26.6612 27.2179 26.8756 27.0059 27.1383 27.0059C27.401 27.0059 27.6154 27.2202 27.6154 27.4829V30.4123C27.6154 30.6773 27.401 30.8893 27.1383 30.8893V30.887Z" fill="#243E26"/>
</g>
<defs>
<clipPath id="clip0_1413_2444">
<rect width="27.6154" height="30.8881" fill="white"/>
</clipPath>
</defs>
</svg>
