<svg width="32" height="32" viewBox="0 0 32 32" fill="none" xmlns="http://www.w3.org/2000/svg">
<mask id="mask0_2631_180" style="mask-type:luminance" maskUnits="userSpaceOnUse" x="0" y="0" width="32" height="32">
<path d="M0 0H31.8149V31.8149H0V0Z" fill="white"/>
</mask>
<g mask="url(#mask0_2631_180)">
<mask id="mask1_2631_180" style="mask-type:luminance" maskUnits="userSpaceOnUse" x="0" y="-1" width="32" height="33">
<path d="M0.000244141 -0.000976562H31.8152V31.814H0.000244141V-0.000976562Z" fill="white"/>
</mask>
<g mask="url(#mask1_2631_180)">
<path d="M31.607 9.24431C31.607 6.44808 29.5502 4.19866 27.0087 4.19866C23.5663 4.03772 20.0554 3.97559 16.4676 3.97559H15.3491C11.7699 3.97559 8.25284 4.03772 4.81038 4.19928C2.27512 4.19928 0.218336 6.46113 0.218336 9.25736C0.0629895 11.4689 -0.00287742 13.681 0.000850893 15.8931C-0.00536296 18.1053 0.0650607 20.3195 0.212122 22.5358C0.212122 25.332 2.2689 27.6 4.80416 27.6C8.42063 27.7679 12.1303 27.8424 15.9021 27.8361C19.6801 27.8486 23.3794 27.7698 27.0001 27.6C29.5416 27.6 31.5983 25.332 31.5983 22.5358C31.7474 20.3175 31.8158 18.1053 31.8096 15.8869C31.8236 13.6748 31.7562 11.4606 31.607 9.24431ZM12.8635 21.9889V9.77871L21.8736 15.8807L12.8635 21.9889Z" fill="#FFC219"/>
</g>
</g>
</svg>
